<?xml version="1.0" encoding="utf-8"?>
<!-- Generator: Adobe Illustrator 25.0.1, SVG Export Plug-In . SVG Version: 6.00 Build 0)  -->
<svg version="1.1" xmlns="http://www.w3.org/2000/svg" xmlns:xlink="http://www.w3.org/1999/xlink" x="0px" y="0px"
	 viewBox="0 0 549.1 314.9" style="enable-background:new 0 0 549.1 314.9;" xml:space="preserve">
<style type="text/css">
	.st0{fill:#FFFFFF;}
	.st1{fill:#CD172D;}
	.st2{fill:#FBD036;}
	.st3{fill:#073B91;}
	.st4{fill:#0F0F0F;}
	.st5{font-family:'GillSansMT-Condensed';}
	.st6{font-size:41.37px;}
	.st7{letter-spacing:4;}
	.st8{font-family:'LiberationSans-Italic';}
	.st9{font-size:24px;}
	.st10{letter-spacing:2;}
</style>
<g id="Fondo">
	<rect class="st0" width="549.1" height="314.9"/>
</g>
<g id="Isotipo">
	<path class="st1" d="M332.3,118.9c10.7-19.3,5.9-45-10.7-57.5c-16.1-12-37.4-7.3-48.5,10.8h0c-11.5-18.7-33.8-23-49.9-9.6
		s-19.8,39.3-8.3,58c16.1,30.7,55.6,56.1,58.2,57.7v0.1h0.1h0.1v-0.1C275.9,176.6,316.7,150.3,332.3,118.9z"/>
	<path class="st2" d="M295.8,135.7L295.8,135.7c0-0.1,0-0.1,0-0.2c-1.1-3.5-2.4-6.8-4-10c-1.7-3.3-3.8-6.4-6.1-9.3
		c-4.3-5.6-15.3-17.5-31.2-18.4c-20.9-1.2-30.8-10.3-30.8-10.3s-9.3-5.8-9-21.1s14.1-24.7,14.1-24.7c7.6-4.1,16.1-5.7,24.4-4.4
		c7.2,1.1,14,4.3,19.9,9.3c-6.3-10.4-15.3-18.3-25.6-22.5c-12.1-4.6-25.3-3.9-37,1.9c0,0-31.4,14.5-31.4,56.5s50.4,62,50.4,62
		l8.8-14.3c0.3-0.8,0.7-1.5,1.3-2.1l0,0c2.4-2.7,6.3-2.6,8.6,0.2c1.1,1.3,1.7,3.1,1.7,4.9c0,0.7-0.1,1.5-0.3,2.2
		c2.7-2.4,6.5-1.8,8.6,1.3c1.2,1.8,1.6,4.3,1,6.5c2.7-2.3,6.5-1.6,8.5,1.5c1.2,1.8,1.5,4.2,0.9,6.4c2.7-2.3,6.5-1.7,8.5,1.4
		c1.6,2.5,1.6,5.9,0.1,8.4c2.3-0.1,4.1-2.3,4.1-4.9c0-0.3,0-0.5-0.1-0.8l0,0c0,0-0.7-7.3-10-20.1c-0.4-0.5-0.8-1-1.1-1.5v-0.1
		c-0.4-0.5-0.8-1-1.1-1.3c-0.4-0.4-0.6-0.7-0.9-1l0,0c0,0-0.6-0.6-0.2-1.2c0.2-0.3,0.5-0.3,0.8-0.1l0.2,0.1l0.1,0.1
		c0.8,0.9,7.8,8.9,10.4,16.1c0.4,1.1,0.9,2.2,1.5,3.1c0.6,1.3,1.6,2.2,2.8,2.6c0.7,0.3,1.5,0.3,2.2,0c1.6-0.4,2.7-1.8,3-3.7
		c0-0.2,0.1-0.3,0.1-0.5l0,0c0-0.2,0-0.4,0-0.6c0-0.3,0-0.5-0.1-0.8c-0.2-1.8-0.7-3.6-1.4-5.3c-4-9.8-11.8-18.7-11.8-18.7l1-0.6
		c5.6,5.9,9.9,14.6,11.1,17.2c0.1,0.2,0.2,0.5,0.3,0.7v0.1l0,0c1.3,2.3,3.9,2.9,5.9,1.4c1.2-0.9,1.9-2.5,1.9-4.1
		C295.9,136.7,295.9,136.2,295.8,135.7z"/>
	<path class="st2" d="M310.9,28.1c28.6-0.1,51.9,26.8,52,60.1c0,12.4-3.3,24.6-9.6,34.7c19.5-24.5,18.2-62.7-2.9-85.4
		c-9.6-10.3-22.3-16.1-35.4-16c-5.2,0-10.3,0.9-15.3,2.7c-14.9,5.4-23.4,17.4-26.7,22.6c6-7.2,13.4-12.5,21.5-15.7
		C299.9,29.2,305.4,28.2,310.9,28.1z"/>
	<path class="st3" d="M248.7,133.7c0-3.2-2.3-5.8-5.1-5.7c-1.5,0-3,0.9-3.9,2.3l0,0l-0.1,0.1l0,0l-8.2,13.6l0,0
		c-1.8,2.4-1.6,6.1,0.5,8.2c2.1,2.1,5.2,1.8,7.1-0.6c0.3-0.4,0.6-0.9,0.7-1.3l0,0l8.1-13.3l0,0C248.4,136,248.7,134.9,248.7,133.7z"
		/>
	<path class="st3" d="M258.1,141.6c0-3.2-2.2-5.8-4.9-5.8c-1.6,0-3.2,0.9-4.1,2.4l0,0l-0.1,0.1l0,0l-8.2,13.6l0,0l0,0
		c-1.8,2.4-1.6,6.1,0.5,8.2c2.1,2.1,5.3,1.8,7.1-0.6c0.3-0.4,0.5-0.8,0.7-1.3l0,0l8.1-13.3l0,0C257.8,144,258.1,142.8,258.1,141.6z"
		/>
	<path class="st3" d="M267.6,149.6c0-3.2-2.3-5.8-5.1-5.7c-1.5,0-3,0.9-3.9,2.3l0,0l-0.1,0.1l0,0l-8.2,13.6l0,0
		c-0.6,0.9-0.9,2.1-0.9,3.2c0.1,3.2,2.4,5.7,5.1,5.6c1.6-0.1,3.1-1,4-2.6l0,0l8.1-13.3l0,0C267.3,152,267.6,150.8,267.6,149.6z"/>
	<path class="st3" d="M276.7,157.3c0-3.2-2.3-5.8-5.1-5.7c-1.5,0-3,0.9-3.9,2.3l0,0l-0.1,0.1v0.1l-8.2,13.6l0,0
		c-1.8,2.4-1.5,6.1,0.6,8.2c2.1,2.1,5.3,1.8,7-0.6c0.3-0.4,0.5-0.8,0.7-1.3l0,0l8.1-13.3l0,0C276.4,159.7,276.7,158.5,276.7,157.3z"
		/>
	<path class="st3" d="M273.1,200.1v-6.7c0,0-39.7-15-80.6-58.5C218.5,177.7,273.1,200.1,273.1,200.1z"/>
	<path class="st3" d="M327.4,97.9c-6.2-4.4-13.3-6.7-20.5-6.7l0,0c-3.7-0.5-7.3-0.5-11,0c0,0-10.2,0.5-18.3-2.4
		C270.4,86.1,265,79,264,77.6l-0.1-0.2l-0.1-0.1l0,0c-0.9-1.2-2.1-1.9-3.5-1.9c-2.8,0-5.1,3.2-5.1,7.2c0,0.3,0,0.6,0,0.9l0,0
		c0,0,0,0.2,0,0.5c0.1,0.6,0.2,1.2,0.4,1.7c0.7,2.2,1.8,4.3,3.1,6c1.3,1.8,4.2,3.7,7.3,5.4c2,0.8,3.9,1.7,5.4,2.6l0,0l2.5,1.4
		c9.6,5.4,17.5,18,17.5,18c2,3.4,3.6,7,4.8,10.9l0,0l0.7-0.2l0,0c22.8-7.2,21.8,8,21.8,8s1.1,12-10.4,28s-35.4,27.7-35.4,27.7v6.7
		c0,0,52.3-22.2,62.6-54.1S327.4,97.9,327.4,97.9z"/>
</g>
<g id="Texto">
	<text transform="matrix(1 0 0 1 72.133 239.6706)" class="st4 st5 st6 st7">CONSTRUYENDO MEMORIAS</text>
	<rect x="73.5" y="245.2" class="st2" width="399.6" height="3.8"/>
	<text transform="matrix(1 0 0 1 149.6489 273.979)" class="st4 st8 st9 st10">Y Nuevas Historias</text>
</g>
</svg>
